<svg width="72" height="72" viewBox="0 0 72 72" fill="none" xmlns="http://www.w3.org/2000/svg">
<path d="M8.91101 41.5844H17.822C19.3975 41.5844 20.9086 42.2103 22.0226 43.3244C23.1367 44.4385 23.7626 45.9495 23.7626 47.5251V56.436C23.7626 58.0116 23.1367 59.5226 22.0226 60.6367C20.9086 61.7508 19.3975 62.3767 17.822 62.3767H14.8517C13.2761 62.3767 11.7651 61.7508 10.651 60.6367C9.5369 59.5226 8.91101 58.0116 8.91101 56.436V35.6438C8.91101 28.5538 11.7275 21.7542 16.7409 16.7408C21.7543 11.7274 28.5539 8.91089 35.6439 8.91089C42.7339 8.91089 49.5335 11.7274 54.5469 16.7408C59.5603 21.7542 62.3768 28.5538 62.3768 35.6438V56.436C62.3768 58.0116 61.7509 59.5226 60.6368 60.6367C59.5227 61.7508 58.0117 62.3767 56.4361 62.3767H53.4658C51.8903 62.3767 50.3792 61.7508 49.2652 60.6367C48.1511 59.5226 47.5252 58.0116 47.5252 56.436V47.5251C47.5252 45.9495 48.1511 44.4385 49.2652 43.3244C50.3792 42.2103 51.8903 41.5844 53.4658 41.5844H62.3768" stroke="#364153" stroke-width="5.94064" stroke-linecap="round" stroke-linejoin="round"/>
</svg>
