<svg width="26" height="26" viewBox="0 0 26 26" fill="none" xmlns="http://www.w3.org/2000/svg">
<path d="M21.2167 13.7908C21.2167 19.095 17.5038 21.747 13.0907 23.2852C12.8596 23.3635 12.6086 23.3598 12.38 23.2746C7.95631 21.747 4.24341 19.095 4.24341 13.7908V6.36501C4.24341 6.08366 4.35517 5.81383 4.55412 5.61489C4.75306 5.41595 5.02289 5.30418 5.30424 5.30418C7.4259 5.30418 10.078 4.03118 11.9238 2.41872C12.1486 2.22671 12.4344 2.12122 12.73 2.12122C13.0256 2.12122 13.3115 2.22671 13.5363 2.41872C15.3927 4.04179 18.0342 5.30418 20.1558 5.30418C20.4372 5.30418 20.707 5.41595 20.906 5.61489C21.1049 5.81383 21.2167 6.08366 21.2167 6.36501V13.7908Z" stroke="#155DFC" stroke-width="2.12166" stroke-linecap="round" stroke-linejoin="round"/>
</svg>
