<svg width="26" height="26" viewBox="0 0 26 26" fill="none" xmlns="http://www.w3.org/2000/svg">
<path d="M12.2262 2.43466C12.2727 2.34073 12.3445 2.26167 12.4335 2.20639C12.5226 2.15112 12.6253 2.12183 12.7301 2.12183C12.8349 2.12183 12.9376 2.15112 13.0266 2.20639C13.1157 2.26167 13.1875 2.34073 13.234 2.43466L15.6845 7.39828C15.8459 7.72498 16.0842 8.00763 16.3789 8.22196C16.6736 8.4363 17.016 8.57592 17.3765 8.62884L22.8567 9.43083C22.9606 9.44587 23.0581 9.48967 23.1384 9.55728C23.2186 9.62488 23.2784 9.71359 23.3108 9.81337C23.3433 9.91315 23.3471 10.02 23.322 10.1219C23.2969 10.2238 23.2438 10.3166 23.1686 10.3898L19.2054 14.2491C18.944 14.5038 18.7484 14.8182 18.6355 15.1653C18.5226 15.5123 18.4957 15.8816 18.5572 16.2413L19.4929 21.694C19.5112 21.7978 19.5 21.9047 19.4605 22.0024C19.421 22.1001 19.3549 22.1848 19.2696 22.2467C19.1843 22.3086 19.0834 22.3454 18.9782 22.3527C18.8731 22.36 18.768 22.3376 18.675 22.2881L13.7761 19.7124C13.4533 19.5429 13.0941 19.4543 12.7295 19.4543C12.365 19.4543 12.0058 19.5429 11.683 19.7124L6.78519 22.2881C6.69219 22.3373 6.58723 22.3595 6.48227 22.352C6.3773 22.3445 6.27654 22.3078 6.19144 22.2459C6.10633 22.184 6.04031 22.0994 6.00087 22.0019C5.96143 21.9043 5.95016 21.7977 5.96835 21.694L6.90294 16.2424C6.96467 15.8825 6.93793 15.513 6.82501 15.1657C6.71209 14.8185 6.51638 14.5039 6.25477 14.2491L2.29151 10.3909C2.21577 10.3177 2.16209 10.2247 2.13659 10.1226C2.1111 10.0204 2.11482 9.9131 2.14733 9.81293C2.17983 9.71276 2.23982 9.62373 2.32045 9.55599C2.40108 9.48824 2.49912 9.44451 2.6034 9.42976L8.08258 8.62884C8.44353 8.57633 8.78632 8.43689 9.08144 8.22253C9.37656 8.00817 9.61516 7.7253 9.77672 7.39828L12.2262 2.43466Z" stroke="#F0B100" stroke-width="2.12166" stroke-linecap="round" stroke-linejoin="round"/>
</svg>
